<?xml version="1.0" encoding="utf-8"?>
<!-- Generator: Adobe Illustrator 21.1.0, SVG Export Plug-In . SVG Version: 6.00 Build 0)  -->
<svg version="1.1" id="Capa_1" xmlns="http://www.w3.org/2000/svg" xmlns:xlink="http://www.w3.org/1999/xlink" x="0px" y="0px"
	 width="473.5px" height="473.5px" viewBox="0 0 473.5 473.5" style="enable-background:new 0 0 473.5 473.5;" xml:space="preserve"
	>
<style type="text/css">
	.st0{fill:#F2AD51;}
	.st1{fill:#B26E24;}
</style>
<g>
	<path class="st0" d="M17.8,92.1h184.1c9.8,0,17.8-8,17.8-17.8V20.4c0-9.8-8-17.8-17.8-17.8H17.8C8,2.6,0,10.6,0,20.4v53.9
		C0,84.1,8,92.1,17.8,92.1z"/>
	<path class="st0" d="M329.5,128.9H145.3c-9.8,0-17.8,8-17.8,17.8v53.9c0,9.8,8,17.8,17.8,17.8h184.1c9.8,0,17.8-8,17.8-17.8v-53.9
		C347.2,136.9,339.3,128.9,329.5,128.9z"/>
	<path class="st1" d="M1.3,128.9v89.4h75.6c9.8,0,17.8-8,17.8-17.8v-53.9c0-9.8-8-17.8-17.8-17.8H1.3z"/>
	<path class="st0" d="M329.5,381.4H145.3c-9.8,0-17.8,8-17.8,17.8v53.9c0,9.8,8,17.8,17.8,17.8h184.1c9.8,0,17.8-8,17.8-17.8v-53.9
		C347.2,389.4,339.3,381.4,329.5,381.4z"/>
	<path class="st1" d="M380.1,399.2v53.9c0,9.8,8,17.8,17.8,17.8h75.6v-89.4h-75.6C388.1,381.4,380.1,389.4,380.1,399.2z"/>
	<path class="st1" d="M76.9,381.4H1.3v89.4h75.6c9.8,0,17.8-8,17.8-17.8v-53.9C94.7,389.4,86.7,381.4,76.9,381.4z"/>
	<path class="st0" d="M17.8,344.6h184.1c9.8,0,17.8-8,17.8-17.8v-53.9c0-9.8-8-17.8-17.8-17.8H17.8c-9.8,0-17.8,8-17.8,17.8v53.9
		C0,336.7,8,344.6,17.8,344.6z"/>
	<path class="st0" d="M252.5,272.9v53.9c0,9.8,8,17.8,17.8,17.8h184.1c9.8,0,17.8-8,17.8-17.8v-53.9c0-9.8-8-17.8-17.8-17.8H270.3
		C260.5,255.2,252.5,263.1,252.5,272.9z"/>
</g>
</svg>
